<svg xmlns="http://www.w3.org/2000/svg" height="512" viewBox="0 0 24 24" width="512"><path d="M17.5 21c-1.93 0-3.5-1.57-3.5-3.5s1.57-3.5 3.5-3.5 3.5 1.57 3.5 3.5-1.57 3.5-3.5 3.5zm0-5.5c-1.103 0-2 .897-2 2s.897 2 2 2 2-.897 2-2-.897-2-2-2z" data-original="#000000" class="active-path" data-old_color="#000000" fill="#356EFF"/><path d="M17.5 24c-1.966 0-3.805-.875-5.046-2.402s-1.718-3.527-1.31-5.488c.513-2.458 2.508-4.453 4.965-4.965 1.96-.409 3.962.069 5.488 1.31A6.475 6.475 0 0124 17.5v1.25c0 1.241-1.01 2.25-2.25 2.25s-2.25-1.009-2.25-2.25v-4a.75.75 0 011.5 0v4a.75.75 0 001.5 0V17.5a4.983 4.983 0 00-1.849-3.882c-1.175-.956-2.72-1.323-4.235-1.005-1.882.392-3.41 1.92-3.803 3.803-.316 1.518.05 3.062 1.005 4.236S15.988 22.5 17.5 22.5a.75.75 0 010 1.5z" data-original="#000000" class="active-path" data-old_color="#000000" fill="#356EFF"/><path d="M9.25 15h-7A2.253 2.253 0 010 12.75v-9.5C0 2.009 1.01 1 2.25 1h17.5C20.99 1 22 2.009 22 3.25v6a.75.75 0 01-1.5 0v-6a.75.75 0 00-.75-.75H2.25a.75.75 0 00-.75.75v9.5c0 .414.337.75.75.75h7a.75.75 0 010 1.5z" data-original="#000000" class="active-path" data-old_color="#000000" fill="#356EFF"/><path d="M11.001 9.827c-.404 0-.809-.092-1.177-.277L.417 4.892a.75.75 0 01.666-1.344l9.41 4.66c.31.155.705.155 1.011.001l9.413-4.661a.75.75 0 11.666 1.344l-9.41 4.66a2.624 2.624 0 01-1.172.275z" data-original="#000000" class="active-path" data-old_color="#000000" fill="#356EFF"/></svg>