<svg xmlns="http://www.w3.org/2000/svg" height="512" viewBox="0 0 24 24" width="512"><path d="M.415 11.196l5.869 2.925a.752.752 0 00.712-.023l5.224-3.037-3.162 2.802a.751.751 0 00-.253.562v6.825c0 .72.919 1.023 1.35.451l2.537-3.373 6.274 3.573a.75.75 0 001.106-.504l3.913-19.5a.75.75 0 00-1.008-.846L.477 9.826a.75.75 0 00-.062 1.37zm21.83-8.249l-3.439 17.137-5.945-3.386a.752.752 0 00-.971.201l-1.585 2.107v-4.244l8.551-7.576c.677-.599-.101-1.664-.874-1.21l-11.39 6.622L2.6 10.609z" data-original="#000000" class="active-path" data-old_color="#000000" fill="#356EFF"/></svg>